<?xml version="1.0" encoding="UTF-8" standalone="no"?>
<svg
   xmlns:dc="http://purl.org/dc/elements/1.1/"
   xmlns:cc="http://creativecommons.org/ns#"
   xmlns:rdf="http://www.w3.org/1999/02/22-rdf-syntax-ns#"
   xmlns:svg="http://www.w3.org/2000/svg"
   xmlns="http://www.w3.org/2000/svg"
   xmlns:sodipodi="http://sodipodi.sourceforge.net/DTD/sodipodi-0.dtd"
   xmlns:inkscape="http://www.inkscape.org/namespaces/inkscape"
   version="1.1"
   id="Layer_1"
   x="0px"
   y="0px"
   width="400"
   height="400"
   viewBox="0 0 400 400"
   xml:space="preserve"
   inkscape:version="0.91 r13725"
   sodipodi:docname="java.svg"><metadata
     id="metadata4479"><rdf:RDF><cc:Work
         rdf:about=""><dc:format>image/svg+xml</dc:format><dc:type
           rdf:resource="http://purl.org/dc/dcmitype/StillImage" /><dc:title></dc:title></cc:Work></rdf:RDF></metadata><defs
     id="defs4477" /><sodipodi:namedview
     pagecolor="#ffffff"
     bordercolor="#666666"
     borderopacity="1"
     objecttolerance="10"
     gridtolerance="10"
     guidetolerance="10"
     inkscape:pageopacity="0"
     inkscape:pageshadow="2"
     inkscape:window-width="640"
     inkscape:window-height="480"
     id="namedview4475"
     showgrid="false"
     inkscape:zoom="0.59"
     inkscape:cx="150"
     inkscape:cy="200"
     inkscape:window-x="0"
     inkscape:window-y="23"
     inkscape:window-maximized="0"
     inkscape:current-layer="Layer_1" /><path
     style="fill:#5382a1"
     d="m 140.681,297.324 c 0,0 -14.178,8.245 10.09,11.035 29.4,3.354 44.426,2.873 76.825,-3.259 0,0 8.518,5.341 20.414,9.967 -72.63,31.128 -164.376,-1.803 -107.329,-17.743"
     id="path4459"
     inkscape:connector-curvature="0" /><path
     style="fill:#5382a1"
     d="m 131.806,256.704 c 0,0 -15.902,11.771 8.384,14.283 31.406,3.24 56.208,3.505 99.125,-4.759 0,0 5.936,6.018 15.27,9.309 -87.814,25.678 -185.623,2.025 -122.779,-18.833"
     id="path4461"
     inkscape:connector-curvature="0" /><path
     style="fill:#e76f00"
     d="m 206.625,187.799 c 17.896,20.604 -4.702,39.145 -4.702,39.145 0,0 45.441,-23.458 24.572,-52.833 -19.491,-27.394 -34.438,-41.005 46.479,-87.934 0,0 -127.013,31.722 -66.349,101.622"
     id="path4463"
     inkscape:connector-curvature="0" /><path
     style="fill:#5382a1"
     d="m 302.684,327.369 c 0,0 10.492,8.645 -11.555,15.333 -41.923,12.7 -174.488,16.535 -211.314,0.506 -13.238,-5.759 11.587,-13.751 19.396,-15.428 8.144,-1.766 12.798,-1.437 12.798,-1.437 -14.722,-10.371 -95.157,20.364 -40.857,29.166 148.084,24.015 269.943,-10.814 231.532,-28.14"
     id="path4465"
     inkscape:connector-curvature="0" /><path
     style="fill:#5382a1"
     d="m 147.499,214.617 c 0,0 -67.431,16.016 -23.879,21.832 18.389,2.462 55.047,1.905 89.193,-0.956 27.906,-2.354 55.927,-7.359 55.927,-7.359 0,0 -9.84,4.214 -16.959,9.075 -68.475,18.009 -200.756,9.631 -162.674,-8.79 32.206,-15.568 58.392,-13.802 58.392,-13.802"
     id="path4467"
     inkscape:connector-curvature="0" /><path
     style="fill:#5382a1"
     d="m 268.462,282.231 c 69.608,-36.171 37.424,-70.931 14.96,-66.248 -5.506,1.146 -7.961,2.139 -7.961,2.139 0,0 2.044,-3.202 5.948,-4.588 44.441,-15.624 78.619,46.081 -14.346,70.52 0,0.001 1.077,-0.962 1.399,-1.823"
     id="path4469"
     inkscape:connector-curvature="0" /><path
     style="fill:#e76f00"
     d="m 226.495,10.399 c 0,0 38.55,38.563 -36.563,97.862 -60.233,47.568 -13.735,74.69 -0.025,105.678 -35.159,-31.722 -60.961,-59.647 -43.651,-85.637 25.407,-38.151 95.793,-56.648 80.239,-117.903"
     id="path4471"
     inkscape:connector-curvature="0" /><path
     style="fill:#5382a1"
     d="m 154.339,380.246 c 66.815,4.277 169.417,-2.373 171.847,-33.988 0,0 -4.671,11.985 -55.219,21.503 -57.028,10.732 -127.364,9.479 -169.081,2.601 0.001,-0.001 8.54,7.068 52.453,9.884"
     id="path4473"
     inkscape:connector-curvature="0" /></svg>