<?xml version="1.0" encoding="UTF-8" standalone="no"?>
<svg
   xmlns:dc="http://purl.org/dc/elements/1.1/"
   xmlns:cc="http://creativecommons.org/ns#"
   xmlns:rdf="http://www.w3.org/1999/02/22-rdf-syntax-ns#"
   xmlns:svg="http://www.w3.org/2000/svg"
   xmlns="http://www.w3.org/2000/svg"
   xmlns:sodipodi="http://sodipodi.sourceforge.net/DTD/sodipodi-0.dtd"
   xmlns:inkscape="http://www.inkscape.org/namespaces/inkscape"
   width="105pt"
   height="105pt"
   viewBox="0 0 105 105"
   version="1.1"
   id="svg4572"
   inkscape:version="0.91 r13725"
   sodipodi:docname="kafka.svg">
  <metadata
     id="metadata4583">
    <rdf:RDF>
      <cc:Work
         rdf:about="">
        <dc:format>image/svg+xml</dc:format>
        <dc:type
           rdf:resource="http://purl.org/dc/dcmitype/StillImage" />
        <dc:title></dc:title>
      </cc:Work>
    </rdf:RDF>
  </metadata>
  <defs
     id="defs4581" />
  <sodipodi:namedview
     pagecolor="#ffffff"
     bordercolor="#666666"
     borderopacity="1"
     objecttolerance="10"
     gridtolerance="10"
     guidetolerance="10"
     inkscape:pageopacity="0"
     inkscape:pageshadow="2"
     inkscape:window-width="640"
     inkscape:window-height="480"
     id="namedview4579"
     showgrid="false"
     inkscape:zoom="1.8347621"
     inkscape:cx="58.883219"
     inkscape:cy="64.313517"
     inkscape:window-x="0"
     inkscape:window-y="23"
     inkscape:window-maximized="0"
     inkscape:current-layer="svg4572" />
  <g
     id="surface1"
     transform="translate(6.4,2.0983734)">
    <rect
       x="0"
       y="0"
       width="94.21315"
       height="102.90163"
       style="fill:#ffffff;fill-opacity:1;stroke:none"
       id="rect4575" />
    <path
       style="fill:#211e1e;fill-opacity:1;fill-rule:nonzero;stroke:none"
       d="m 40.285156,13.929688 c -1.019531,-1.027344 -2.445312,-1.660157 -4.027344,-1.660157 -1.574218,0 -2.988281,0.632813 -3.996093,1.660157 l -0.02734,0 c -1.019531,1.019531 -1.652344,2.441406 -1.652344,4.019531 0,1.582031 0.632813,2.992187 1.652344,4.007812 l 0.02734,0.02344 C 33.269531,23 34.683594,23.625 36.257812,23.625 c 1.582032,0 3.007813,-0.625 4.027344,-1.644531 l 0.01172,-0.02344 c 1.023437,-1.015625 1.652344,-2.425781 1.652344,-4.007812 0,-1.578125 -0.628907,-3 -1.652344,-4.019531 z m -4.027344,77.722656 c 1.582032,0 3.007813,-0.644532 4.027344,-1.652344 l 0.01172,-0.03125 c 1.023437,-1.003906 1.652344,-2.429688 1.652344,-3.992188 0,-1.582031 -0.628907,-3 -1.652344,-4.027343 l -0.01172,0 c -1.019531,-1.035157 -2.445312,-1.664063 -4.027344,-1.664063 -1.574218,0 -2.988281,0.628906 -3.996093,1.664063 l -0.02734,0 c -1.019531,1.027343 -1.652344,2.445312 -1.652344,4.027343 0,1.5625 0.632813,2.988282 1.652344,3.992188 L 32.261719,90 c 1.007812,1.007812 2.421875,1.652344 3.996093,1.652344 z m 30.9375,-17.203125 C 68.601562,74.082031 69.875,73.179688 70.652344,71.8125 l 0.105468,-0.199219 c 0.691407,-1.292969 0.816407,-2.789062 0.449219,-4.113281 -0.375,-1.417969 -1.289062,-2.671875 -2.648437,-3.457031 l -0.08203,-0.05078 c -1.32422,-0.726564 -2.835939,-0.88672 -4.226564,-0.51172 -1.410156,0.351562 -2.679688,1.296875 -3.453125,2.648437 -0.78125,1.34375 -0.945313,2.890625 -0.570313,4.3125 0.386719,1.402344 1.292969,2.667969 2.644532,3.457032 l 0.0078,0 c 1.355469,0.78125 2.890625,0.921874 4.316406,0.550781 z M 42.085938,46.140625 c -1.492188,-1.484375 -3.546876,-2.417969 -5.828126,-2.417969 -2.269531,0 -4.320312,0.933594 -5.808593,2.417969 -1.484375,1.484375 -2.398438,3.535156 -2.398438,5.808594 0,2.277343 0.914063,4.335937 2.398438,5.835937 1.488281,1.476563 3.539062,2.402344 5.808593,2.402344 2.28125,0 4.335938,-0.925781 5.828126,-2.402344 1.484374,-1.5 2.398437,-3.558594 2.398437,-5.835937 0,-2.273438 -0.914063,-4.324219 -2.398437,-5.808594 z m -3.277344,-9.675781 c 3.304687,0.542968 6.273437,2.125 8.542968,4.410156 l 0.01563,0 c 0.359374,0.363281 0.710937,0.757812 1.039062,1.15625 L 54.074219,38.75 c -0.761719,-2.304688 -0.796875,-4.710938 -0.183594,-6.96875 0.808594,-3.023438 2.765625,-5.730469 5.707031,-7.429688 l 0.09375,-0.05859 c 2.90625,-1.644531 6.210938,-1.984375 9.195313,-1.175781 3.019531,0.808593 5.742187,2.777343 7.441406,5.710937 l 0,0.0078 c 1.6875,2.917968 2.03125,6.269531 1.222656,9.28125 C 76.75,41.140625 74.78125,43.863281 71.84375,45.550781 l -0.773438,0.457031 -0.07812,0 c -2.714844,1.296876 -5.703126,1.496094 -8.445313,0.773438 -2.25,-0.597656 -4.316406,-1.851562 -5.933594,-3.640625 l -5.660156,3.273437 c 0.652344,1.722657 1.011719,3.578126 1.011719,5.535157 0,1.949219 -0.359375,3.832031 -1.011719,5.566406 l 5.660156,3.257813 c 1.617188,-1.808594 3.683594,-3.042969 5.933594,-3.636719 3.023437,-0.828125 6.371094,-0.476563 9.296875,1.230469 l 0.1875,0.08594 0,0.01172 c 2.828125,1.710937 4.726562,4.359375 5.519531,7.347656 0.808594,2.996094 0.464844,6.347656 -1.222656,9.269531 l -0.105469,0.207031 -0.01172,-0.01953 C 74.515625,78.089844 71.84375,80 68.894531,80.808594 c -3.027343,0.796875 -6.375,0.457031 -9.296875,-1.226563 l 0,-0.02344 c -2.941406,-1.699219 -4.898437,-4.410156 -5.707031,-7.429688 -0.613281,-2.25 -0.578125,-4.65625 0.183594,-6.960937 L 48.40625,61.898438 c -0.328125,0.398437 -0.679688,0.773437 -1.039062,1.136718 l -0.01563,0.01953 c -2.269531,2.273437 -5.238281,3.855468 -8.542968,4.382812 l 0,6.550781 c 2.355468,0.492188 4.464844,1.667969 6.117187,3.320313 l 0.0078,0.01953 c 2.214844,2.203125 3.585937,5.273437 3.585937,8.648437 0,3.363282 -1.371093,6.414063 -3.585937,8.628907 l -0.0078,0.03516 c -2.230469,2.214844 -5.292969,3.585937 -8.667969,3.585937 -3.355468,0 -6.421874,-1.371093 -8.644531,-3.585937 l -0.0078,0 0,-0.03516 c -2.21875,-2.214844 -3.59375,-5.265625 -3.59375,-8.628907 0,-3.375 1.375,-6.445312 3.59375,-8.648437 l 0,-0.01953 0.0078,0 C 29.261719,75.65625 31.375,74.480469 33.722656,73.988281 l 0,-6.550781 c -3.304687,-0.527344 -6.269531,-2.109375 -8.53125,-4.382812 l -0.02344,-0.01953 c -2.832031,-2.84375 -4.601563,-6.75 -4.601563,-11.085937 0,-4.324219 1.769532,-8.230469 4.601563,-11.074219 l 0.02344,0 c 2.261719,-2.285156 5.226563,-3.867188 8.53125,-4.410156 l 0,-6.523438 C 31.375,29.433594 29.261719,28.253906 27.613281,26.613281 l -0.0078,0 0,-0.01563 c -2.21875,-2.226562 -3.59375,-5.273437 -3.59375,-8.648437 0,-3.359375 1.375,-6.433594 3.59375,-8.648438 l 0.0078,-0.011719 c 2.222657,-2.222656 5.289063,-3.59375 8.644531,-3.59375 3.375,0 6.4375,1.371094 8.667969,3.59375 l 0,0.011719 0.0078,0 c 2.214844,2.214844 3.585937,5.289063 3.585937,8.648438 0,3.375 -1.371093,6.421875 -3.585937,8.648437 l -0.0078,0.01563 c -1.652343,1.640625 -3.761719,2.820313 -6.117187,3.328125 z m 31.84375,-4.347656 -0.04687,-0.07031 c -0.78125,-1.320313 -2.03125,-2.199219 -3.410157,-2.578125 -1.425781,-0.375 -2.960937,-0.21875 -4.324218,0.5625 l 0.0078,0 c -1.359375,0.773438 -2.273437,2.039062 -2.652344,3.457031 -0.375,1.40625 -0.210937,2.957031 0.570313,4.3125 l 0.02734,0.03516 c 0.785156,1.335937 2.03125,2.230468 3.425781,2.59375 1.402344,0.394531 2.960938,0.230468 4.308594,-0.554688 l 0.07031,-0.03516 c 1.324219,-0.792969 2.207032,-2.039063 2.578125,-3.410156 0.375,-1.414063 0.222657,-2.960938 -0.554687,-4.3125"
       id="path4577"
       inkscape:connector-curvature="0" />
  </g>
</svg>
