<?xml version="1.0" encoding="UTF-8" standalone="no"?>
<svg
   xmlns:dc="http://purl.org/dc/elements/1.1/"
   xmlns:cc="http://creativecommons.org/ns#"
   xmlns:rdf="http://www.w3.org/1999/02/22-rdf-syntax-ns#"
   xmlns:svg="http://www.w3.org/2000/svg"
   xmlns="http://www.w3.org/2000/svg"
   xmlns:sodipodi="http://sodipodi.sourceforge.net/DTD/sodipodi-0.dtd"
   xmlns:inkscape="http://www.inkscape.org/namespaces/inkscape"
   viewBox="0 0 45 45"
   id="svg3392"
   version="1.1"
   inkscape:version="0.91 r13725"
   sodipodi:docname="kubernetes.svg"
   width="45"
   height="45">
  <metadata
     id="metadata3408">
    <rdf:RDF>
      <cc:Work
         rdf:about="">
        <dc:format>image/svg+xml</dc:format>
        <dc:type
           rdf:resource="http://purl.org/dc/dcmitype/StillImage" />
        <dc:title></dc:title>
      </cc:Work>
    </rdf:RDF>
  </metadata>
  <defs
     id="defs3406" />
  <sodipodi:namedview
     pagecolor="#ffffff"
     bordercolor="#666666"
     borderopacity="1"
     objecttolerance="10"
     gridtolerance="10"
     guidetolerance="10"
     inkscape:pageopacity="0"
     inkscape:pageshadow="2"
     inkscape:window-width="907"
     inkscape:window-height="751"
     id="namedview3404"
     showgrid="false"
     inkscape:zoom="6.5289526"
     inkscape:cx="8.9994413"
     inkscape:cy="25.434914"
     inkscape:window-x="0"
     inkscape:window-y="23"
     inkscape:window-maximized="0"
     inkscape:current-layer="svg3392" />
  <style
     id="style3394">.st0{fill:#326de6}.st1{fill:#FFF}</style>
  <path
     class="st1"
     d="m 173.57,30.98 c -0.69,0 -1.39,-0.09 -2.08,-0.32 -0.69,-0.19 -1.33,-0.42 -1.93,-0.65 l -0.51,2.62 c 0.46,0.19 1.02,0.42 1.75,0.65 0.74,0.23 1.61,0.36 2.67,0.36 1.02,0 1.89,-0.09 2.58,-0.27 0.69,-0.18 1.29,-0.46 1.71,-0.78 0.41,-0.32 0.73,-0.69 0.92,-1.15 0.18,-0.46 0.27,-0.92 0.27,-1.43 0,-0.64 -0.13,-1.15 -0.37,-1.61 -0.27,-0.41 -0.59,-0.78 -0.96,-1.05 -0.42,-0.28 -0.83,-0.51 -1.34,-0.69 -0.5,-0.19 -0.96,-0.37 -1.42,-0.51 -0.33,-0.09 -0.65,-0.23 -0.93,-0.32 -0.27,-0.09 -0.55,-0.23 -0.73,-0.37 -0.23,-0.14 -0.37,-0.23 -0.51,-0.41 -0.14,-0.14 -0.18,-0.32 -0.18,-0.51 0,-0.23 0.13,-0.41 0.41,-0.64 0.28,-0.18 0.83,-0.28 1.61,-0.28 0.79,0 1.48,0.1 2.07,0.28 0.6,0.18 1.06,0.32 1.39,0.41 l 0.5,-2.66 c -0.5,-0.23 -1.06,-0.42 -1.75,-0.51 -0.69,-0.14 -1.42,-0.18 -2.21,-0.18 -0.92,0 -1.7,0.09 -2.35,0.27 -0.64,0.19 -1.19,0.46 -1.61,0.83 -0.41,0.37 -0.73,0.74 -0.92,1.2 -0.18,0.46 -0.27,0.92 -0.27,1.42 0,0.64 0.13,1.15 0.36,1.56 0.28,0.42 0.6,0.79 0.97,1.06 0.42,0.28 0.83,0.51 1.29,0.69 0.46,0.18 0.97,0.32 1.43,0.46 0.32,0.09 0.64,0.18 0.92,0.32 0.27,0.09 0.55,0.23 0.78,0.32 0.23,0.1 0.42,0.23 0.55,0.42 0.14,0.14 0.19,0.32 0.19,0.55 0,0.32 -0.19,0.55 -0.6,0.69 -0.37,0.18 -0.97,0.23 -1.7,0.23 z m -9.81,-4.78 -4.84,0 c 0.05,-0.32 0.1,-0.64 0.23,-0.97 0.1,-0.32 0.28,-0.59 0.46,-0.82 0.19,-0.23 0.46,-0.42 0.74,-0.56 0.28,-0.13 0.65,-0.18 1.06,-0.18 0.41,0 0.78,0.09 1.06,0.23 0.28,0.14 0.55,0.32 0.74,0.6 0.18,0.23 0.32,0.5 0.41,0.82 0.09,0.24 0.14,0.56 0.14,0.88 z m -8.11,1.24 c 0,1.01 0.14,1.93 0.46,2.67 0.33,0.78 0.74,1.42 1.34,1.93 0.55,0.5 1.24,0.92 2.07,1.19 0.83,0.28 1.75,0.41 2.76,0.41 0.79,0 1.48,-0.04 2.08,-0.18 0.6,-0.14 1.19,-0.27 1.75,-0.46 l -0.42,-2.66 c -0.41,0.13 -0.87,0.27 -1.43,0.41 -0.55,0.14 -1.19,0.18 -1.79,0.18 -1.01,0 -1.84,-0.23 -2.53,-0.69 -0.65,-0.46 -0.97,-1.05 -0.97,-1.84 l 7.83,0 c 0,-0.13 0.04,-0.32 0.04,-0.55 l 0,-0.64 c 0,-2.02 -0.46,-3.54 -1.38,-4.6 -0.92,-1.05 -2.25,-1.56 -4.05,-1.56 -0.74,0 -1.43,0.14 -2.12,0.41 -0.69,0.28 -1.29,0.69 -1.84,1.2 -0.55,0.55 -0.97,1.19 -1.29,2.02 -0.32,0.78 -0.51,1.7 -0.51,2.76 z m -9.94,-3.49 0,4.96 c 0,1.01 0.09,1.84 0.32,2.44 0.19,0.64 0.51,1.1 0.92,1.42 0.42,0.32 0.88,0.55 1.43,0.69 0.55,0.14 1.2,0.18 1.93,0.18 0.65,0 1.29,-0.04 1.98,-0.13 0.69,-0.1 1.29,-0.28 1.89,-0.51 l -0.41,-2.71 c -0.28,0.14 -0.56,0.23 -0.83,0.32 -0.23,0.09 -0.51,0.14 -0.74,0.18 -0.23,0.05 -0.46,0.1 -0.74,0.1 -0.23,0 -0.5,0.04 -0.82,0.04 -0.28,0 -0.51,-0.04 -0.74,-0.09 -0.23,-0.05 -0.42,-0.14 -0.55,-0.32 -0.14,-0.14 -0.28,-0.37 -0.37,-0.64 -0.09,-0.28 -0.14,-0.65 -0.14,-1.06 l 0,-4.87 5.06,0 0,-2.62 -5.06,0 0,-3.54 -3.18,0.5 0,3.04 -2.76,0 0,2.62 2.81,0 z m -12.43,2.25 c 0.04,-0.32 0.09,-0.64 0.23,-0.97 0.09,-0.32 0.27,-0.59 0.46,-0.82 0.18,-0.23 0.46,-0.42 0.73,-0.56 0.33,-0.13 0.65,-0.18 1.06,-0.18 0.42,0 0.79,0.09 1.06,0.23 0.28,0.14 0.55,0.32 0.74,0.6 0.18,0.23 0.32,0.5 0.41,0.82 0.1,0.28 0.14,0.6 0.14,0.92 l -4.83,0 0,-0.04 z m -3.27,1.24 c 0,1.01 0.14,1.93 0.46,2.67 0.32,0.78 0.73,1.42 1.33,1.93 0.56,0.5 1.25,0.92 2.07,1.19 0.83,0.28 1.75,0.41 2.77,0.41 0.78,0 1.47,-0.04 2.07,-0.18 0.6,-0.14 1.2,-0.27 1.75,-0.46 l -0.41,-2.66 c -0.42,0.13 -0.88,0.27 -1.43,0.41 -0.55,0.14 -1.2,0.18 -1.8,0.18 -1.01,0 -1.84,-0.23 -2.53,-0.69 -0.65,-0.46 -0.97,-1.05 -0.97,-1.84 l 7.83,0 c 0,-0.13 0.05,-0.32 0.05,-0.55 l 0,-0.64 c 0,-2.02 -0.46,-3.54 -1.39,-4.6 -0.92,-1.05 -2.25,-1.56 -4.05,-1.56 -0.73,0 -1.42,0.14 -2.12,0.41 -0.69,0.28 -1.28,0.69 -1.84,1.2 -0.55,0.55 -0.96,1.19 -1.29,2.02 -0.32,0.78 -0.5,1.7 -0.5,2.76 z m -11.97,5.93 3.17,0 0,-9.47 c 0.28,-0.05 0.51,-0.05 0.74,-0.09 0.23,0 0.46,-0.05 0.69,-0.05 0.78,0 1.29,0.23 1.57,0.74 0.27,0.5 0.36,1.28 0.36,2.43 l 0,6.39 3.18,0 0,-6.8 c 0,-0.83 -0.09,-1.56 -0.23,-2.25 -0.14,-0.69 -0.41,-1.24 -0.78,-1.75 -0.37,-0.5 -0.88,-0.87 -1.52,-1.15 -0.65,-0.27 -1.43,-0.41 -2.4,-0.41 -0.96,0 -1.88,0.04 -2.71,0.18 -0.83,0.14 -1.52,0.28 -2.07,0.42 l 0,11.81 z m -3.27,-8.83 0.55,-2.94 c -0.28,-0.09 -0.6,-0.18 -0.97,-0.23 -0.37,-0.04 -0.73,-0.09 -1.1,-0.14 -0.37,-0.04 -0.69,-0.09 -1.02,-0.09 -0.32,0 -0.55,-0.04 -0.73,-0.04 -1.2,0 -2.21,0.09 -3.09,0.27 -0.87,0.19 -1.75,0.42 -2.58,0.74 l 0,11.26 3.18,0 0,-8.92 c 0.46,-0.14 0.88,-0.18 1.29,-0.23 0.41,-0.04 0.87,-0.04 1.29,-0.04 0.18,0 0.41,0 0.69,0.04 0.28,0 0.55,0.05 0.83,0.09 0.27,0.05 0.6,0.1 0.87,0.14 0.37,0 0.6,0.05 0.79,0.09 z m -15.15,1.66 -4.84,0 c 0.05,-0.32 0.09,-0.64 0.23,-0.97 0.1,-0.32 0.28,-0.59 0.46,-0.82 0.19,-0.23 0.46,-0.42 0.74,-0.56 0.28,-0.13 0.64,-0.18 1.06,-0.18 0.41,0 0.78,0.09 1.06,0.23 0.27,0.14 0.55,0.32 0.73,0.6 0.19,0.23 0.33,0.5 0.42,0.82 0.09,0.24 0.14,0.56 0.14,0.88 z m -8.06,1.24 c 0,1.01 0.14,1.93 0.46,2.67 0.32,0.78 0.74,1.42 1.34,1.93 0.55,0.5 1.24,0.92 2.07,1.19 0.83,0.28 1.75,0.41 2.76,0.41 0.78,0 1.47,-0.04 2.07,-0.18 0.6,-0.14 1.2,-0.27 1.75,-0.46 l -0.41,-2.66 c -0.42,0.13 -0.88,0.27 -1.43,0.41 -0.55,0.14 -1.2,0.18 -1.8,0.18 -1.01,0 -1.84,-0.23 -2.53,-0.69 -0.64,-0.46 -0.97,-1.05 -0.97,-1.84 l 7.83,0 c 0,-0.13 0.05,-0.32 0.05,-0.55 l 0,-0.64 c 0,-2.02 -0.46,-3.54 -1.38,-4.6 -0.92,-1.05 -2.26,-1.56 -4.05,-1.56 -0.74,0 -1.43,0.14 -2.12,0.41 -0.69,0.28 -1.29,0.69 -1.84,1.2 -0.56,0.55 -0.97,1.19 -1.29,2.02 -0.37,0.78 -0.51,1.7 -0.51,2.76 z m -1.57,-0.09 c 0,-0.92 -0.09,-1.79 -0.32,-2.58 -0.18,-0.78 -0.5,-1.42 -0.92,-1.97 -0.41,-0.55 -0.92,-0.97 -1.52,-1.29 -0.6,-0.28 -1.29,-0.46 -2.07,-0.46 -0.42,0 -0.83,0.05 -1.24,0.14 -0.42,0.09 -0.83,0.23 -1.29,0.41 l 0,-6.02 -3.18,0.55 0,16.87 c 0.6,0.18 1.29,0.32 2.16,0.46 0.88,0.14 1.71,0.18 2.54,0.18 0.92,0 1.75,-0.13 2.44,-0.46 0.73,-0.27 1.33,-0.73 1.84,-1.28 0.51,-0.55 0.87,-1.2 1.15,-1.98 0.28,-0.73 0.41,-1.61 0.41,-2.57 z m -3.22,-0.09 c 0,1.33 -0.23,2.25 -0.74,2.85 -0.5,0.59 -1.15,0.82 -1.93,0.82 -0.18,0 -0.41,0 -0.69,-0.04 -0.28,0 -0.51,-0.05 -0.74,-0.1 l 0,-6.52 c 0.23,-0.14 0.51,-0.23 0.88,-0.37 0.32,-0.09 0.69,-0.14 1.01,-0.14 0.74,0 1.34,0.32 1.66,0.92 0.37,0.6 0.55,1.47 0.55,2.58 z m -10.45,5.7 0,-11.63 -3.18,0 0,9.46 c -0.46,0.1 -0.97,0.14 -1.43,0.14 -0.78,0 -1.29,-0.27 -1.56,-0.82 -0.28,-0.56 -0.42,-1.38 -0.42,-2.49 l 0,-6.29 -3.17,0 0,6.71 c 0,0.82 0.04,1.56 0.18,2.25 0.14,0.69 0.37,1.29 0.74,1.79 0.37,0.51 0.87,0.88 1.52,1.15 0.64,0.28 1.42,0.41 2.44,0.41 0.97,0 1.89,-0.09 2.71,-0.23 0.88,-0.13 1.62,-0.32 2.17,-0.45 z M 57.07,26.11 c 0.32,-0.37 0.6,-0.74 0.92,-1.15 0.33,-0.42 0.65,-0.83 0.92,-1.24 0.28,-0.42 0.6,-0.83 0.88,-1.24 0.27,-0.42 0.51,-0.79 0.74,-1.15 l 3.77,0 c -0.32,0.41 -0.64,0.82 -1.06,1.28 -0.41,0.46 -0.78,0.92 -1.2,1.43 -0.41,0.46 -0.82,0.92 -1.24,1.38 -0.41,0.46 -0.78,0.87 -1.15,1.24 0.41,0.41 0.88,0.92 1.38,1.47 0.51,0.55 0.97,1.15 1.48,1.79 0.46,0.6 0.92,1.24 1.33,1.84 0.42,0.6 0.74,1.15 0.97,1.65 l -3.64,0 C 60.99,33 60.71,32.5 60.34,31.99 60.02,31.44 59.65,30.93 59.28,30.38 58.91,29.88 58.55,29.37 58.13,28.91 57.76,28.45 57.39,28.04 57.07,27.76 l 0,5.7 -3.18,0 0,-17.24 3.18,-0.55 0,10.44 z"
     id="path3396"
     inkscape:connector-curvature="0"
     style="fill:#ffffff" />
  <path
     class="st0"
     d="m 14.110718,42.776237 c -1.004853,0 -1.956257,-0.438287 -2.608342,-1.261411 L 1.678332,29.328308 C 1.036937,28.515874 0.780378,27.478951 1.036937,26.474097 L 4.543233,11.26233 C 4.767721,10.257477 5.441187,9.445043 6.371211,8.996066 L 20.567434,2.2079618 c 0.448977,-0.2244885 0.962094,-0.3313877 1.46452,-0.3313877 0.502427,0 1.004854,0.1068992 1.453831,0.3313877 L 37.692698,8.963996 c 0.919334,0.448977 1.60349,1.261412 1.827978,2.266265 l 3.506296,15.211767 c 0.224489,1.015543 0,2.052466 -0.652085,2.8649 l -9.824044,12.186518 c -0.641395,0.780364 -1.592799,1.261411 -2.608342,1.261411 l -15.831783,0.02138 z"
     id="path3398"
     inkscape:connector-curvature="0"
     style="fill:#326de6" />
  <path
     class="st1"
     d="M 41.498313,28.708292 31.695649,40.86274 c -0.427597,0.555876 -1.122442,0.887264 -1.849357,0.887264 l -15.714194,0 c -0.726915,0 -1.42176,-0.331388 -1.860047,-0.887264 L 2.480077,28.708292 C 2.0311,28.131036 1.849371,27.393431 1.99903,26.677206 L 5.505326,11.497509 C 5.676365,10.770594 6.146722,10.182648 6.788118,9.88333 L 20.941582,3.1379855 c 0.331388,-0.138969 0.716225,-0.2031086 1.058303,-0.2031086 0.352767,0 0.705535,0.074829 1.015543,0.2137985 L 37.179582,9.88333 c 0.662775,0.331388 1.143822,0.930024 1.293481,1.614179 l 3.495606,15.179697 c 0.181729,0.716225 0.01069,1.45383 -0.470356,2.031086 M 43.807337,26.281679 40.311731,11.101982 C 40.001723,9.81919 39.146529,8.750197 37.959947,8.183631 L 23.838552,1.4169072 C 23.261296,1.149659 22.6199,1 21.999885,1 21.379869,1 20.759853,1.1389691 20.129147,1.4169072 L 5.964993,8.183631 C 4.767721,8.750197 3.912527,9.81919 3.613209,11.101982 L 0.117603,26.281679 c -0.310008,1.293481 0,2.629722 0.833814,3.677335 l 9.802664,12.154447 c 0.812434,1.015544 2.031086,1.60349 3.356637,1.60349 l 15.703504,0 c 1.325551,0 2.544203,-0.587946 3.345947,-1.60349 l 9.802664,-12.154447 c 0.844504,-1.026233 1.154512,-2.362474 0.844504,-3.677335"
     id="path3400"
     inkscape:connector-curvature="0"
     style="fill:#ffffff" />
  <path
     class="st1"
     d="m 29.440074,27.735509 c -0.705535,1.122442 -1.624869,2.020396 -2.693861,2.715241 l -1.774528,-4.233211 c -0.07483,-0.331388 0.06414,-0.694845 0.395527,-0.865884 0.117589,-0.05345 0.256558,-0.08552 0.395527,-0.08552 l 4.48977,0.758984 c -0.171039,0.620016 -0.448977,1.175893 -0.812435,1.710389 z m -5.473243,3.891134 c -0.641395,0.138969 -1.293481,0.224488 -1.966946,0.224488 -0.983474,0 -1.934877,-0.160349 -2.832831,-0.448977 l 2.212815,-3.998033 c 0.224488,-0.256558 0.598636,-0.374147 0.897954,-0.203108 0.149659,0.08552 0.256558,0.203108 0.342077,0.310007 l 2.159366,3.891134 c -0.256558,0.08552 -0.534497,0.138969 -0.812435,0.224489 z m -10.24095,-5.569453 4.4577,-0.758985 c 0.363457,-0.03207 0.705535,0.224489 0.791054,0.587946 0.02138,0.171039 0.02138,0.310008 -0.03207,0.448977 l -1.710388,4.115622 c -1.571419,-1.004853 -2.832831,-2.544202 -3.506296,-4.39356 z m 0.758985,-7.600538 3.335257,2.9718 c 0.310008,0.256558 0.342078,0.726915 0.08552,1.036923 -0.08552,0.117589 -0.203108,0.203108 -0.342077,0.224488 l -4.350801,1.261412 c -0.160349,-1.902808 0.256558,-3.837684 1.272102,-5.494623 z m 5.526692,-3.976653 c 0.310008,-0.05345 0.587946,-0.1069 0.897954,-0.160349 l -0.256558,4.479079 c -0.02138,0.395528 -0.331388,0.726916 -0.758985,0.726916 -0.106899,0 -0.245868,-0.03207 -0.331388,-0.08552 l -3.730785,-2.661792 c 1.143823,-1.143822 2.576273,-1.934877 4.179762,-2.298334 z m 8.135035,2.298334 -3.677335,2.608342 c -0.310008,0.192419 -0.726915,0.13897 -0.983473,-0.171038 -0.08552,-0.08552 -0.1069,-0.192419 -0.138969,-0.310008 L 23.100947,14.34103 c 1.934877,0.224488 3.698715,1.090372 5.045646,2.437303 z m 2.415924,4.340111 c 0.224488,0.962093 0.277938,1.913497 0.192418,2.832831 l -4.286661,-1.229342 c -0.395527,-0.117589 -0.620015,-0.502427 -0.534496,-0.897954 0.02138,-0.117589 0.08552,-0.224489 0.171039,-0.310008 l 3.388707,-3.057319 c 0.481047,0.791054 0.844504,1.689008 1.068993,2.661792 z m -7.322601,2.91835 -1.240031,0.587946 -1.229342,-0.587946 -0.310008,-1.314861 0.844504,-1.068993 1.368311,0 0.844504,1.068993 -0.277938,1.314861 z m 12.988262,1.368311 c -0.02138,0 -0.02138,0 0,0 l -0.02138,0 c -0.03207,0 -0.06414,0 -0.06414,-0.02138 -0.05345,0 -0.106899,-0.03207 -0.160349,-0.03207 -0.203109,-0.02138 -0.363458,-0.05345 -0.534496,-0.05345 -0.08552,0 -0.171039,0 -0.277939,-0.03207 l -0.03207,0 c -0.587946,-0.05345 -1.068993,-0.1069 -1.51797,-0.245869 -0.192419,-0.08552 -0.245868,-0.203108 -0.310008,-0.310008 0,-0.03207 -0.02138,-0.03207 -0.02138,-0.05345 L 32.924989,24.539219 C 33.085338,23.256427 33.031888,21.909496 32.72188,20.594635 32.411872,19.269084 31.877376,18.039743 31.150461,16.9173 l 0.277938,-0.245868 0,-0.06414 c 0,-0.138969 0.03207,-0.277938 0.138969,-0.416907 0.342078,-0.310008 0.758985,-0.555876 1.272101,-0.865884 0.08552,-0.05345 0.160349,-0.08552 0.245869,-0.138969 0.171038,-0.08552 0.310007,-0.171039 0.481046,-0.277938 0.03207,-0.03207 0.08552,-0.06414 0.138969,-0.117589 0.03207,-0.02138 0.05345,-0.02138 0.05345,-0.05345 0.395527,-0.342078 0.481047,-0.897954 0.203109,-1.261412 -0.138969,-0.192418 -0.395528,-0.310007 -0.652086,-0.310007 -0.224488,0 -0.416907,0.08552 -0.609326,0.224488 l -0.06414,0.05345 c -0.05345,0.03207 -0.08552,0.08552 -0.138969,0.117589 -0.138969,0.138969 -0.245869,0.245868 -0.363458,0.395527 -0.05345,0.05345 -0.106899,0.138969 -0.192419,0.192419 -0.395527,0.416907 -0.758985,0.758985 -1.122442,1.004853 -0.08552,0.05345 -0.171039,0.08552 -0.256558,0.08552 -0.05345,0 -0.11759,0 -0.171039,-0.03207 l -0.05345,0 -0.342077,0.224488 c -0.363458,-0.384837 -0.748295,-0.726915 -1.143823,-1.058303 -1.689008,-1.314861 -3.730784,-2.127295 -5.86877,-2.330404 l -0.03207,-0.363457 -0.05345,-0.05345 c -0.08552,-0.08552 -0.192419,-0.171039 -0.224489,-0.363458 -0.02138,-0.448976 0.03207,-0.951403 0.08552,-1.517969 l 0,-0.02138 c 0,-0.08552 0.03207,-0.203109 0.05345,-0.277938 0.03207,-0.171039 0.06414,-0.342078 0.08552,-0.534497 l 0,-0.256558 c 0,-0.502426 -0.395528,-0.9193336 -0.865885,-0.9193336 -0.224488,0 -0.448976,0.1068993 -0.620015,0.2779376 -0.171039,0.171039 -0.256559,0.395528 -0.256559,0.641396 l 0,0.224489 c 0,0.192418 0.03207,0.363457 0.08552,0.534496 0.03207,0.08552 0.03207,0.171039 0.06414,0.277938 l 0,0.03207 c 0.05345,0.555876 0.138969,1.058303 0.07483,1.50728 -0.02138,0.203108 -0.138969,0.277938 -0.224489,0.363457 -0.02138,0.03207 -0.02138,0.03207 -0.05345,0.06414 l -0.02138,0.363457 c -0.513117,0.05345 -1.015543,0.1069 -1.51797,0.224489 -2.159365,0.470357 -4.072862,1.560729 -5.558762,3.132149 l -0.277938,-0.192419 -0.06414,0 c -0.05345,0 -0.106899,0.02138 -0.160349,0.02138 -0.08552,0 -0.171039,-0.02138 -0.256558,-0.07483 -0.363458,-0.256558 -0.726915,-0.620016 -1.122442,-1.036923 -0.05345,-0.06414 -0.1069,-0.138969 -0.192419,-0.203108 -0.117589,-0.138969 -0.224489,-0.245869 -0.374148,-0.384838 -0.02138,-0.03207 -0.07483,-0.06414 -0.138969,-0.117589 -0.02138,-0.03207 -0.05345,-0.03207 -0.05345,-0.05345 -0.171039,-0.138969 -0.395528,-0.224488 -0.620016,-0.224488 -0.245868,0 -0.502427,0.106899 -0.641396,0.310008 -0.277938,0.363457 -0.192418,0.919334 0.192419,1.261411 0.03207,0 0.03207,0.02138 0.06414,0.02138 0.05345,0.03207 0.07483,0.08552 0.138969,0.117589 0.160349,0.1069 0.310008,0.192419 0.470356,0.277938 0.08552,0.03207 0.171039,0.08552 0.256559,0.13897 0.502426,0.310007 0.930023,0.555876 1.261411,0.865884 0.138969,0.138969 0.138969,0.288628 0.138969,0.427597 l 0,0.05345 0.288628,0.245869 c -0.06414,0.08552 -0.117589,0.149659 -0.149659,0.224488 -1.40038,2.212815 -1.934877,4.821158 -1.571419,7.39743 l -0.363454,0.11759 c 0,0.02138 -0.02138,0.02138 -0.02138,0.05345 -0.06414,0.117589 -0.149659,0.224488 -0.310008,0.310008 -0.427597,0.138969 -0.930024,0.192419 -1.51797,0.245868 l -0.03207,0 c -0.08552,0 -0.192419,0 -0.277938,0.03207 -0.171039,0 -0.331388,0.03207 -0.534497,0.05345 -0.05345,0 -0.106899,0.03207 -0.171038,0.03207 -0.02138,0 -0.05345,0 -0.07483,0.03207 -0.513117,0.106899 -0.823125,0.587946 -0.737605,1.036923 0.08552,0.384838 0.448976,0.641396 0.897953,0.641396 0.08552,0 0.138969,0 0.224489,-0.03207 0.03207,0 0.06414,0 0.06414,-0.02138 0.05345,0 0.106899,-0.03207 0.160349,-0.03207 0.203109,-0.05345 0.342078,-0.106899 0.513116,-0.192418 0.07483,-0.03207 0.160349,-0.08552 0.245869,-0.11759 l 0.03207,0 c 0.534496,-0.192418 1.004853,-0.363457 1.45383,-0.416907 l 0.06414,0 c 0.160348,0 0.277938,0.08552 0.363457,0.138969 0.02138,0 0.02138,0.03207 0.05345,0.03207 l 0.395527,-0.06414 c 0.673465,2.073846 1.966947,3.923203 3.677335,5.270134 0.384837,0.310008 0.780365,0.555876 1.207962,0.812434 l -0.171039,0.363458 c 0,0.03207 0.02138,0.03207 0.02138,0.05345 0.06414,0.117589 0.117589,0.256558 0.06414,0.448977 -0.171038,0.427597 -0.427597,0.844504 -0.737605,1.314861 l 0,0.03207 c -0.05345,0.08552 -0.106899,0.138969 -0.160348,0.224489 -0.11759,0.138969 -0.203109,0.277938 -0.310008,0.448977 -0.03207,0.03207 -0.05345,0.08552 -0.08552,0.138969 0,0.03207 -0.03207,0.05345 -0.03207,0.05345 -0.224488,0.481046 -0.05345,1.015543 0.363458,1.207961 0.117589,0.05345 0.224488,0.08552 0.342078,0.08552 0.331387,0 0.673465,-0.224489 0.844504,-0.534497 0,-0.02138 0.02138,-0.05345 0.02138,-0.05345 0.03207,-0.05345 0.06414,-0.117589 0.08552,-0.138969 0.08552,-0.203109 0.117589,-0.342078 0.171039,-0.502427 0.03207,-0.08552 0.05345,-0.171039 0.08552,-0.256558 0.192418,-0.555876 0.331387,-1.004853 0.587946,-1.400381 0.106899,-0.171039 0.256558,-0.192418 0.363457,-0.256558 0.03207,0 0.03207,0 0.05345,-0.02138 l 0.203108,-0.363457 c 1.229342,0.470356 2.576273,0.726915 3.923204,0.726915 0.812434,0 1.656939,-0.08552 2.447993,-0.277938 0.502427,-0.11759 0.983474,-0.256559 1.45383,-0.427597 l 0.171039,0.310007 c 0.03207,0 0.03207,0 0.05345,0.03207 0.138969,0.02138 0.256558,0.08552 0.363457,0.245869 0.224489,0.395527 0.395528,0.876574 0.598636,1.40038 l 0,0.03207 c 0.02138,0.08552 0.05345,0.171039 0.07483,0.256558 0.06414,0.160349 0.08552,0.331388 0.171039,0.502427 l 0.08552,0.138969 c 0,0.03207 0.03207,0.05345 0.03207,0.05345 0.160349,0.342078 0.502426,0.534497 0.833814,0.534497 0.117589,0 0.224489,-0.03207 0.342078,-0.08552 0.192419,-0.106899 0.363457,-0.277938 0.416907,-0.502426 0.06414,-0.224489 0.06414,-0.481047 -0.05345,-0.705535 0,-0.02138 -0.03207,-0.02138 -0.03207,-0.05345 -0.02138,-0.05345 -0.05345,-0.106899 -0.07483,-0.138969 -0.08552,-0.171039 -0.203109,-0.310008 -0.310008,-0.448977 -0.06414,-0.08552 -0.117589,-0.138969 -0.171039,-0.224489 l 0,-0.03207 c -0.310008,-0.470357 -0.587946,-0.887264 -0.726915,-1.314861 -0.06414,-0.192419 0,-0.310008 0.02138,-0.448977 0,-0.02138 0.03207,-0.02138 0.03207,-0.05345 l -0.138969,-0.331388 c 1.4859,-0.876574 2.747311,-2.105916 3.698715,-3.613195 0.513116,-0.791055 0.897954,-1.656939 1.186582,-2.522823 l 0.331388,0.05345 c 0.03207,0 0.03207,-0.03207 0.05345,-0.03207 0.117589,-0.05345 0.203109,-0.138969 0.374148,-0.138969 l 0.05345,0 c 0.448977,0.05345 0.919334,0.224488 1.45383,0.427597 l 0.03207,0 c 0.08552,0.02138 0.171039,0.07483 0.256558,0.106899 0.160349,0.08552 0.299318,0.138969 0.502427,0.192419 0.05345,0 0.106899,0.03207 0.171039,0.03207 0.02138,0 0.05345,0 0.07483,0.03207 0.08552,0.02138 0.149659,0.02138 0.224489,0.02138 0.427597,0 0.791055,-0.277938 0.897954,-0.641396 0,-0.342077 -0.299318,-0.780364 -0.812435,-0.930023 z"
     id="path3402"
     inkscape:connector-curvature="0"
     style="fill:#ffffff" />
</svg>
