<?xml version="1.0" encoding="UTF-8" standalone="no"?>
<!-- Generator: Adobe Illustrator 16.0.0, SVG Export Plug-In . SVG Version: 6.00 Build 0)  -->

<svg
   xmlns:dc="http://purl.org/dc/elements/1.1/"
   xmlns:cc="http://creativecommons.org/ns#"
   xmlns:rdf="http://www.w3.org/1999/02/22-rdf-syntax-ns#"
   xmlns:svg="http://www.w3.org/2000/svg"
   xmlns="http://www.w3.org/2000/svg"
   xmlns:sodipodi="http://sodipodi.sourceforge.net/DTD/sodipodi-0.dtd"
   xmlns:inkscape="http://www.inkscape.org/namespaces/inkscape"
   version="1.1"
   id="Layer_1"
   x="0px"
   y="0px"
   width="115.333px"
   height="114px"
   viewBox="0 0 115.333 114"
   enable-background="new 0 0 115.333 114"
   xml:space="preserve"
   inkscape:version="0.91 r13725"
   sodipodi:docname="prometheus.svg"><metadata
     id="metadata5804"><rdf:RDF><cc:Work
         rdf:about=""><dc:format>image/svg+xml</dc:format><dc:type
           rdf:resource="http://purl.org/dc/dcmitype/StillImage" /></cc:Work></rdf:RDF></metadata><defs
     id="defs5802" /><sodipodi:namedview
     pagecolor="#ffffff"
     bordercolor="#666666"
     borderopacity="1"
     objecttolerance="10"
     gridtolerance="10"
     guidetolerance="10"
     inkscape:pageopacity="0"
     inkscape:pageshadow="2"
     inkscape:window-width="709"
     inkscape:window-height="523"
     id="namedview5800"
     showgrid="false"
     inkscape:zoom="2.0701754"
     inkscape:cx="57.6665"
     inkscape:cy="57"
     inkscape:window-x="0"
     inkscape:window-y="23"
     inkscape:window-maximized="0"
     inkscape:current-layer="g5796" /><g
     id="Layer_2" /><g
     id="g5796"><path
       d="M 56.667,0.667 C 25.372,0.667 0,26.036 0,57.332 c 0,31.295 25.372,56.666 56.667,56.666 31.295,0 56.666,-25.371 56.666,-56.666 0,-31.296 -25.372,-56.665 -56.666,-56.665 z m 0,106.055 c -8.904,0 -16.123,-5.948 -16.123,-13.283 l 32.246,0 c 0,7.334 -7.219,13.283 -16.123,13.283 z m 26.63,-17.682 -53.263,0 0,-9.658 53.264,0 0,9.658 z m -0.191,-14.629 -52.92,0 C 30.01,74.208 29.83,74.008 29.66,73.802 24.208,67.182 22.924,63.726 21.677,60.204 c -0.021,-0.116 6.611,1.355 11.314,2.413 0,0 2.42,0.56 5.958,1.205 -3.397,-3.982 -5.414,-9.044 -5.414,-14.218 0,-11.359 8.712,-21.285 5.569,-29.308 3.059,0.249 6.331,6.456 6.552,16.161 3.252,-4.494 4.613,-12.701 4.613,-17.733 0,-5.21 3.433,-11.262 6.867,-11.469 -3.061,5.045 0.793,9.37 4.219,20.099 1.285,4.03 1.121,10.812 2.113,15.113 C 63.797,33.534 65.333,20.5 71,16 c -2.5,5.667 0.37,12.758 2.333,16.167 3.167,5.5 5.087,9.667 5.087,17.548 0,5.284 -1.951,10.259 -5.242,14.148 3.742,-0.702 6.326,-1.335 6.326,-1.335 l 12.152,-2.371 c 10e-4,-10e-4 -1.765,7.261 -8.55,14.254 z"
       id="path5798"
       inkscape:connector-curvature="0"
       style="fill:#000000" /></g></svg>