<?xml version="1.0" encoding="UTF-8" standalone="no"?>
<svg
   xmlns:dc="http://purl.org/dc/elements/1.1/"
   xmlns:cc="http://creativecommons.org/ns#"
   xmlns:rdf="http://www.w3.org/1999/02/22-rdf-syntax-ns#"
   xmlns:svg="http://www.w3.org/2000/svg"
   xmlns="http://www.w3.org/2000/svg"
   xmlns:xlink="http://www.w3.org/1999/xlink"
   xmlns:sodipodi="http://sodipodi.sourceforge.net/DTD/sodipodi-0.dtd"
   xmlns:inkscape="http://www.inkscape.org/namespaces/inkscape"
   width="420"
   height="420"
   viewBox="0 0 420 420"
   version="1.1"
   preserveAspectRatio="xMidYMid"
   id="svg5715"
   inkscape:version="0.91 r13725"
   sodipodi:docname="scala.svg">
  <metadata
     id="metadata5743">
    <rdf:RDF>
      <cc:Work
         rdf:about="">
        <dc:format>image/svg+xml</dc:format>
        <dc:type
           rdf:resource="http://purl.org/dc/dcmitype/StillImage" />
        <dc:title></dc:title>
      </cc:Work>
    </rdf:RDF>
  </metadata>
  <sodipodi:namedview
     pagecolor="#ffffff"
     bordercolor="#666666"
     borderopacity="1"
     objecttolerance="10"
     gridtolerance="10"
     guidetolerance="10"
     inkscape:pageopacity="0"
     inkscape:pageshadow="2"
     inkscape:window-width="640"
     inkscape:window-height="480"
     id="namedview5741"
     showgrid="false"
     inkscape:zoom="0.56730769"
     inkscape:cx="128"
     inkscape:cy="208"
     inkscape:window-x="528"
     inkscape:window-y="92"
     inkscape:window-maximized="0"
     inkscape:current-layer="svg5715" />
  <defs
     id="defs5717">
    <linearGradient
       x1="0"
       y1="0.5"
       x2="1"
       y2="0.5"
       id="linearGradient-1">
      <stop
         stop-color="#4F4F4F"
         offset="0%"
         id="stop5720" />
      <stop
         stop-color="#000000"
         offset="100%"
         id="stop5722" />
    </linearGradient>
    <linearGradient
       x1="0"
       y1="0.5"
       x2="1"
       y2="0.5"
       id="linearGradient-2">
      <stop
         stop-color="#C40000"
         offset="0%"
         id="stop5725" />
      <stop
         stop-color="#FF0000"
         offset="100%"
         id="stop5727" />
    </linearGradient>
    <linearGradient
       inkscape:collect="always"
       xlink:href="#linearGradient-1"
       id="linearGradient5745"
       x1="0"
       y1="444.17413"
       x2="156.76733"
       y2="444.17413"
       gradientTransform="scale(1.6329932,0.61237244)"
       gradientUnits="userSpaceOnUse" />
    <linearGradient
       inkscape:collect="always"
       xlink:href="#linearGradient-1"
       id="linearGradient5747"
       x1="0"
       y1="235.15102"
       x2="156.76733"
       y2="235.15102"
       gradientTransform="scale(1.6329932,0.61237244)"
       gradientUnits="userSpaceOnUse" />
    <linearGradient
       inkscape:collect="always"
       xlink:href="#linearGradient-2"
       id="linearGradient5749"
       x1="0"
       y1="263.1015"
       x2="202.38577"
       y2="263.1015"
       gradientTransform="scale(1.2649111,0.79056942)"
       gradientUnits="userSpaceOnUse" />
    <linearGradient
       inkscape:collect="always"
       xlink:href="#linearGradient-2"
       id="linearGradient5751"
       x1="0"
       y1="101.19289"
       x2="202.38577"
       y2="101.19289"
       gradientTransform="scale(1.2649111,0.79056942)"
       gradientUnits="userSpaceOnUse" />
    <linearGradient
       inkscape:collect="always"
       xlink:href="#linearGradient-2"
       id="linearGradient5753"
       x1="0"
       y1="425.01013"
       x2="202.38577"
       y2="425.01013"
       gradientTransform="scale(1.2649111,0.79056942)"
       gradientUnits="userSpaceOnUse" />
  </defs>
  <g
     id="g5729"
     transform="translate(88,4)">
    <path
       d="m 0,288 0,-32 c 0,-5.39378 116.37689,-14.42844 192.19911,-32 l 0,0 C 228.82844,232.49067 256,242.96889 256,256 l 0,0 0,32 c 0,13.024 -27.17156,23.50933 -63.80089,32 l 0,0 C 116.37689,302.42489 0,293.39022 0,288"
       transform="matrix(1,0,0,-1,0,544)"
       id="path5731"
       inkscape:connector-curvature="0"
       style="fill:url(#linearGradient5745)" />
    <path
       d="m 0,160 0,-32 c 0,-5.39378 116.37689,-14.42844 192.19911,-32 l 0,0 C 228.82844,104.49067 256,114.96889 256,128 l 0,0 0,32 c 0,13.024 -27.17156,23.50933 -63.80089,32 l 0,0 C 116.37689,174.42489 0,165.39022 0,160"
       transform="matrix(1,0,0,-1,0,288)"
       id="path5733"
       inkscape:connector-curvature="0"
       style="fill:url(#linearGradient5747)" />
    <path
       d="m 0,224 0,-96 c 0,8 256,24 256,64 l 0,0 0,96 C 256,248 0,232 0,224"
       transform="matrix(1,0,0,-1,0,416)"
       id="path5735"
       inkscape:connector-curvature="0"
       style="fill:url(#linearGradient5749)" />
    <path
       d="M 0,96 0,0 c 0,8 256,24 256,64 l 0,0 0,96 C 256,120 0,104 0,96"
       transform="matrix(1,0,0,-1,0,160)"
       id="path5737"
       inkscape:connector-curvature="0"
       style="fill:url(#linearGradient5751)" />
    <path
       d="m 0,352 0,-96 c 0,8 256,24 256,64 l 0,0 0,96 C 256,376 0,360 0,352"
       transform="matrix(1,0,0,-1,0,672)"
       id="path5739"
       inkscape:connector-curvature="0"
       style="fill:url(#linearGradient5753)" />
  </g>
</svg>
