<?xml version="1.0" encoding="UTF-8" standalone="no"?>
<!-- Created with Inkscape (http://www.inkscape.org/) -->

<svg
   xmlns:dc="http://purl.org/dc/elements/1.1/"
   xmlns:cc="http://creativecommons.org/ns#"
   xmlns:rdf="http://www.w3.org/1999/02/22-rdf-syntax-ns#"
   xmlns:svg="http://www.w3.org/2000/svg"
   xmlns="http://www.w3.org/2000/svg"
   xmlns:sodipodi="http://sodipodi.sourceforge.net/DTD/sodipodi-0.dtd"
   xmlns:inkscape="http://www.inkscape.org/namespaces/inkscape"
   version="1.0"
   width="38"
   height="38"
   id="svg2"
   inkscape:version="0.91 r13725"
   sodipodi:docname="XML_icon.svg">
  <metadata
     id="metadata3752">
    <rdf:RDF>
      <cc:Work
         rdf:about="">
        <dc:format>image/svg+xml</dc:format>
        <dc:type
           rdf:resource="http://purl.org/dc/dcmitype/StillImage" />
        <dc:title></dc:title>
      </cc:Work>
    </rdf:RDF>
  </metadata>
  <sodipodi:namedview
     pagecolor="#ffffff"
     bordercolor="#666666"
     borderopacity="1"
     objecttolerance="10"
     gridtolerance="10"
     guidetolerance="10"
     inkscape:pageopacity="0"
     inkscape:pageshadow="2"
     inkscape:window-width="789"
     inkscape:window-height="605"
     id="namedview3750"
     showgrid="false"
     inkscape:zoom="8.6940888"
     inkscape:cx="18.000736"
     inkscape:cy="7.0020189"
     inkscape:window-x="0"
     inkscape:window-y="23"
     inkscape:window-maximized="0"
     inkscape:current-layer="svg2" />
  <defs
     id="defs5" />
  <path
     d="m 36.962513,28.916068 -1.002805,-0.978972 -0.01979,-12.026108 1.02273,-0.986917 -1.31e-4,13.991997 z"
     style="opacity:1;fill:#803300;fill-rule:evenodd;stroke:none;stroke-width:1px;stroke-linecap:butt;stroke-linejoin:miter;stroke-opacity:1"
     id="path2764"
     inkscape:connector-curvature="0" />
  <rect
     width="34.007584"
     height="12.029619"
     x="1.9521263"
     y="15.91112"
     style="opacity:1;fill:#ff6600;fill-opacity:1;stroke:none;stroke-width:2;stroke-linecap:round;stroke-linejoin:round;stroke-miterlimit:4;stroke-dasharray:none;stroke-opacity:1"
     id="rect1873" />
  <path
     d="m 0.96507689,14.916127 36.00121111,0.004 -1.018562,0.987048 -33.9838821,0.01172 -0.99876701,-1.002805 z"
     style="opacity:1;fill:#ffccaa;fill-opacity:1;fill-rule:evenodd;stroke:none;stroke-width:1px;stroke-linecap:butt;stroke-linejoin:miter;stroke-opacity:1"
     id="path1875"
     inkscape:connector-curvature="0" />
  <path
     d="m 0.96885189,28.91639 35.99730411,0.0038 -1.006843,-0.987048 -34.0073191,0 -0.98314201,0.983273 z"
     style="opacity:1;fill:#552200;fill-opacity:1;fill-rule:evenodd;stroke:none;stroke-width:1px;stroke-linecap:butt;stroke-linejoin:miter;stroke-opacity:1"
     id="path2762"
     inkscape:connector-curvature="0" />
  <path
     d="m 1.9599379,27.92485 -0.99472901,0.991218 -3.95e-4,-13.999941 0.99108601,0.990955 0.004,12.017768 z"
     style="opacity:1;fill:#ff9955;fill-rule:evenodd;stroke:none;stroke-width:1px;stroke-linecap:butt;stroke-linejoin:miter;stroke-opacity:1"
     id="path3651"
     inkscape:connector-curvature="0" />
  <g
     id="g4580"
     transform="translate(0.96481389,14.916127)">
    <path
       d="m 4.8170128,3.8673983 2.9238281,0 1.5234375,2.6425781 1.4765626,-2.6425781 2.894531,0 -2.671875,4.1601562 2.923828,4.4296875 -2.982422,0 -1.693359,-2.7597656 -1.6992187,2.7597656 -2.9648438,0 L 7.5123253,7.9806795 4.8170128,3.8673983 Z m 9.8906252,0 3.492187,0 1.347657,5.2265625 1.341796,-5.2265625 3.480469,0 0,8.5898437 -2.167969,0 0,-6.5507812 -1.68164,6.5507812 -1.962891,0 -1.675781,-6.5507812 0,6.5507812 -2.173828,0 0,-8.5898437 z m 11.349609,0 2.654297,0 0,6.4746097 4.142578,0 0,2.115234 -6.796875,0 0,-8.5898437 z"
       style="font-style:normal;font-variant:normal;font-weight:800;font-stretch:normal;font-size:12px;line-height:125%;font-family:'Arial Black';text-align:start;writing-mode:lr-tb;text-anchor:start;fill:#803300;fill-opacity:1;stroke:none;stroke-width:1px;stroke-linecap:butt;stroke-linejoin:miter;stroke-opacity:1"
       id="text4574"
       inkscape:connector-curvature="0" />
    <path
       d="m 4.2424884,2.9393196 2.9238281,0 1.5234375,2.6425781 1.476563,-2.6425781 2.894531,0 -2.671875,4.1601563 2.923828,4.4296871 -2.982422,0 -1.6933594,-2.7597653 -1.6992187,2.7597653 -2.9648438,0 L 6.9378009,7.0526009 4.2424884,2.9393196 Z m 9.8906246,0 3.492188,0 1.347656,5.2265625 1.341797,-5.2265625 3.480469,0 0,8.5898434 -2.167969,0 0,-6.5507809 -1.681641,6.5507809 -1.96289,0 -1.675781,-6.5507809 0,6.5507809 -2.173829,0 0,-8.5898434 z m 11.34961,0 2.654297,0 0,6.4746094 4.142578,0 0,2.115234 -6.796875,0 0,-8.5898434 z"
       style="font-style:normal;font-variant:normal;font-weight:800;font-stretch:normal;font-size:12px;line-height:125%;font-family:'Arial Black';text-align:start;writing-mode:lr-tb;text-anchor:start;fill:#ffffff;fill-opacity:1;stroke:none;stroke-width:1px;stroke-linecap:butt;stroke-linejoin:miter;stroke-opacity:1"
       id="text4570"
       inkscape:connector-curvature="0" />
  </g>
</svg>
